# xmcd CD database file
#
# Track frame offsets:
#	150
#	19240
#	42440
#	63669
#	81270
#	97133
#	119171
#	136258
#	155432
#	175895
#
# Disc length: 2526 seconds
#
# Revision: 1
# Processed by: cddbd v1.5.2PL0 Copyright (c) Steve Scherf et al.
# Submitted via: CDex 1.51
#
DISCID=8f09dc0a
DTITLE=אהובה עוזרי - חלומות גן עדן
DYEAR=1976
DGENRE=מזרחי
TTITLE0=ספינת האהבה
TTITLE1=מלחמתך הראשונה
TTITLE2=בגבעות שוטטתי
TTITLE3=עלמת החן
TTITLE4=עוד עולה השחר
TTITLE5=קול קורא לי במדבר
TTITLE6=חלומות גן עדן
TTITLE7=שיר השירים
TTITLE8=אבני הכותל
TTITLE9=נעימת אהובה עוזרי
EXTD=YEAR: 1976
EXTT0=
EXTT1=
EXTT2=
EXTT3=
EXTT4=
EXTT5=
EXTT6=
EXTT7=
EXTT8=
EXTT9=
PLAYORDER=
